<!-- Generated by IcoMoon.io -->
<svg version="1.1" xmlns="http://www.w3.org/2000/svg" width="32" height="32" viewBox="0 0 32 32">
<title>s-operation</title>
<path d="M12.156 24q0.344-0.906 1.109-1.453t1.734-0.547 1.734 0.547 1.109 1.453h10.156v2h-10.156q-0.344 0.906-1.109 1.453t-1.734 0.547-1.734-0.547-1.109-1.453h-8.156v-2h8.156zM18.156 15q0.344-0.906 1.109-1.453t1.734-0.547 1.734 0.547 1.109 1.453h4.156v2h-4.156q-0.344 0.906-1.109 1.453t-1.734 0.547-1.734-0.547-1.109-1.453h-14.156v-2h14.156zM8.156 6q0.344-0.906 1.109-1.453t1.734-0.547 1.734 0.547 1.109 1.453h14.156v2h-14.156q-0.344 0.906-1.109 1.453t-1.734 0.547-1.734-0.547-1.109-1.453h-4.156v-2h4.156z"></path>
</svg>
